<svg xmlns="http://www.w3.org/2000/svg"
 xmlns:xlink="http://www.w3.org/1999/xlink"
 width="17px" height="19px"  viewBox="0 0 17 19">
<path fill-rule="evenodd"  fill="#36aeea"
 d="M14.999786,7.998535 C14.999786,7.998535 12.999695,7.998535 12.999695,7.998535 C12.999695,7.998535 12.999695,5.9992676 12.999695,5.9992676 C12.999695,3.7893066 11.208801,1.9990234 8.999756,1.9990234 C6.7907104,1.9990234 4.999695,3.7893066 4.999695,5.9992676 C4.999695,5.9992676 4.999695,7.998535 4.999695,7.998535 C4.999695,7.998535 2.9997559,7.998535 2.9997559,7.998535 C2.447113,7.998535 1.9997559,8.446289 1.9997559,8.998779 C1.9997559,8.998779 1.9997559,16.99878 1.9997559,16.99878 C1.9997559,17.55127 2.447113,17.999023 2.9997559,17.999023 C2.9997559,17.999023 14.999786,17.999023 14.999786,17.999023 C15.552429,17.999023 15.999756,17.55127 15.999756,16.99878 C15.999756,16.99878 15.999756,8.998779 15.999756,8.998779 C15.999756,8.446289 15.552429,7.998535 14.999786,7.998535 ZM8.999756,13.998047 C8.4470215,13.998047 7.9997864,13.552002 7.9997864,12.998535 C7.9997864,12.445801 8.4470215,11.999512 8.999756,11.999512 C9.552399,11.999512 9.999756,12.445801 9.999756,12.998535 C9.999756,13.552002 9.552399,13.998047 8.999756,13.998047 ZM10.999725,7.998535 C10.999725,7.998535 6.9997864,7.998535 6.9997864,7.998535 C6.9997864,7.998535 6.9997864,5.9992676 6.9997864,5.9992676 C6.9997864,4.8952637 7.8942566,3.998291 8.999756,3.998291 C10.10321,3.998291 10.999725,4.8952637 10.999725,5.9992676 C10.999725,5.9992676 10.999725,7.998535 10.999725,7.998535 Z"/>
</svg>