<svg xmlns="http://www.w3.org/2000/svg"
 xmlns:xlink="http://www.w3.org/1999/xlink"
 width="83px" height="10px"  viewBox="0 0 83 10">
<path fill-rule="evenodd"  fill="#191919"
 d="M71.54065,8.998718 C71.54065,8.998718 66.533844,3.83667 66.533844,3.83667 C66.533844,3.83667 61.52716,8.998718 61.52716,8.998718 C61.52716,8.998718 56.520264,3.83667 56.520264,3.83667 C56.520264,3.83667 51.51349,8.998718 51.51349,8.998718 C51.51349,8.998718 46.506805,3.83667 46.506805,3.83667 C46.506805,3.83667 41.499878,8.998718 41.499878,8.998718 C41.499878,8.998718 36.493103,3.83667 36.493103,3.83667 C36.493103,3.83667 31.48642,8.998718 31.48642,8.998718 C31.48642,8.998718 26.479645,3.83667 26.479645,3.83667 C26.479645,3.83667 21.47284,8.998718 21.47284,8.998718 C21.47284,8.998718 16.466064,3.83667 16.466064,3.83667 C16.466064,3.83667 11.459259,8.998718 11.459259,8.998718 C11.459259,8.998718 6.452484,3.83667 6.452484,3.83667 C6.452484,3.83667 1.8914185,8.538696 1.8914185,8.538696 C1.8914185,8.538696 1.000061,7.6192017 1.000061,7.6192017 C1.000061,7.6192017 6.452484,1.9989624 6.452484,1.9989624 C6.452484,1.9989624 11.459259,7.160095 11.459259,7.160095 C11.459259,7.160095 16.466064,1.9989624 16.466064,1.9989624 C16.466064,1.9989624 21.47284,7.160095 21.47284,7.160095 C21.47284,7.160095 26.479645,1.9989624 26.479645,1.9989624 C26.479645,1.9989624 31.48642,7.160095 31.48642,7.160095 C31.48642,7.160095 36.493103,1.9989624 36.493103,1.9989624 C36.493103,1.9989624 41.499878,7.160095 41.499878,7.160095 C41.499878,7.160095 46.506805,1.9989624 46.506805,1.9989624 C46.506805,1.9989624 51.51349,7.160095 51.51349,7.160095 C51.51349,7.160095 56.520264,1.9989624 56.520264,1.9989624 C56.520264,1.9989624 61.52716,7.160095 61.52716,7.160095 C61.52716,7.160095 66.533844,1.9989624 66.533844,1.9989624 C66.533844,1.9989624 71.54065,7.160095 71.54065,7.160095 C71.54065,7.160095 76.547424,1.9989624 76.547424,1.9989624 C76.547424,1.9989624 81.99997,7.6192017 81.99997,7.6192017 C81.99997,7.6192017 81.10834,8.538696 81.10834,8.538696 C81.10834,8.538696 76.547424,3.83667 76.547424,3.83667 C76.547424,3.83667 71.54065,8.998718 71.54065,8.998718 Z"/>
</svg>