<svg xmlns="http://www.w3.org/2000/svg"
 xmlns:xlink="http://www.w3.org/1999/xlink"
 width="35px" height="43px"  viewBox="0 0 35 43">
<path fill-rule="evenodd"  fill="#404041"
 d="M28.077026,41.997314 C28.077026,41.997314 5.9230957,41.997314 5.9230957,41.997314 C3.204193,41.997314 1.000061,39.75952 1.000061,36.99829 C1.000061,36.99829 1.000061,6.9975586 1.000061,6.9975586 C1.000061,4.236328 3.204193,1.9978027 5.9230957,1.9978027 C5.9230957,1.9978027 20.692383,1.9978027 20.692383,1.9978027 C22.339722,1.9716797 22.995483,2.0334473 23.15387,2.0334473 C23.15387,2.0334473 23.15387,1.9978027 23.15387,1.9978027 C23.15387,1.9978027 33.0,11.998535 33.0,11.998535 C33.0,13.834473 33.0,14.106445 33.0,14.497803 C33.0,14.497803 33.0,36.99829 33.0,36.99829 C33.0,39.75952 30.795898,41.997314 28.077026,41.997314 ZM23.15387,4.4978027 C23.15387,7.475342 23.15387,9.497559 23.15387,9.497559 C23.15387,10.87793 24.25592,11.998535 25.615356,11.998535 C25.615356,11.998535 30.538513,11.998535 30.538513,11.998535 C30.538513,11.998535 23.15387,4.4978027 23.15387,4.4978027 ZM30.538513,14.497803 C27.672607,14.497803 25.615356,14.497803 25.615356,14.497803 C22.896484,14.497803 20.692383,12.258301 20.692383,9.497559 C20.692383,9.497559 20.63501,7.4919434 20.657349,4.4978027 C20.657349,4.4978027 5.9230957,4.4978027 5.9230957,4.4978027 C4.563629,4.4978027 3.4615784,5.6171875 3.4615784,6.9975586 C3.4615784,6.9975586 3.4615784,36.99829 3.4615784,36.99829 C3.4615784,38.37793 4.563629,39.49756 5.9230957,39.49756 C5.9230957,39.49756 28.077026,39.49756 28.077026,39.49756 C29.436462,39.49756 30.538513,38.37793 30.538513,36.99829 C30.538513,36.99829 30.538513,14.497803 30.538513,14.497803 ZM24.384583,31.99707 C24.384583,31.99707 9.6154175,31.99707 9.6154175,31.99707 C8.935608,31.99707 8.3845825,31.437744 8.3845825,30.74707 C8.3845825,30.057373 8.935608,29.497803 9.6154175,29.497803 C9.6154175,29.497803 24.384583,29.497803 24.384583,29.497803 C25.064331,29.497803 25.615295,30.057373 25.615295,30.74707 C25.615295,31.437744 25.064331,31.99707 24.384583,31.99707 ZM24.384583,24.497559 C24.384583,24.497559 9.6154175,24.497559 9.6154175,24.497559 C8.935608,24.497559 8.3845825,23.937988 8.3845825,23.248291 C8.3845825,22.557617 8.935608,21.997559 9.6154175,21.997559 C9.6154175,21.997559 24.384583,21.997559 24.384583,21.997559 C25.064331,21.997559 25.615295,22.557617 25.615295,23.248291 C25.615295,23.937988 25.064331,24.497559 24.384583,24.497559 Z"/>
</svg>