<svg xmlns="http://www.w3.org/2000/svg"
 xmlns:xlink="http://www.w3.org/1999/xlink"
 width="43px" height="43px"  viewBox="0 0 43 43">
<path fill-rule="evenodd"  fill="#404041"
 d="M40.75,26.998047 C40.75,26.998047 33.249878,26.998047 33.249878,26.998047 C32.55957,26.998047 32.0,26.4375 32.0,25.747803 C32.0,25.056885 32.55957,24.498535 33.249878,24.498535 C33.249878,24.498535 40.75,24.498535 40.75,24.498535 C41.440308,24.498535 41.99994,25.056885 41.99994,25.747803 C41.99994,26.4375 41.440308,26.998047 40.75,26.998047 ZM40.75,19.497314 C40.75,19.497314 30.749939,19.497314 30.749939,19.497314 C30.05951,19.497314 29.5,18.93872 29.5,18.247559 C29.5,17.557861 30.05951,16.997314 30.749939,16.997314 C30.749939,16.997314 40.75,16.997314 40.75,16.997314 C41.440308,16.997314 41.99994,17.557861 41.99994,18.247559 C41.99994,18.93872 41.440308,19.497314 40.75,19.497314 ZM40.75,11.998535 C40.75,11.998535 30.749939,11.998535 30.749939,11.998535 C30.05951,11.998535 29.5,11.438477 29.5,10.747314 C29.5,10.057129 30.05951,9.497559 30.749939,9.497559 C30.749939,9.497559 40.75,9.497559 40.75,9.497559 C41.440308,9.497559 41.99994,10.057129 41.99994,10.747314 C41.99994,11.438477 41.440308,11.998535 40.75,11.998535 ZM29.5,29.497314 C29.5,29.497314 29.5,34.497803 29.5,34.497803 C29.5,38.638916 26.14209,41.99756 21.999878,41.99756 C21.999878,41.99756 9.499878,41.99756 9.499878,41.99756 C5.357788,41.99756 1.9998779,38.638916 1.9998779,34.497803 C1.9998779,34.497803 1.9998779,29.497314 1.9998779,29.497314 C1.9998779,26.214844 4.123535,23.454102 7.0615845,22.437988 C5.4613647,20.279053 4.499939,17.51294 4.499939,14.499023 C4.499939,7.59375 9.536743,1.9978027 15.749939,1.9978027 C21.963196,1.9978027 26.999939,7.59375 26.999939,14.499023 C26.999939,17.51294 26.038513,20.279053 24.438416,22.437988 C27.376465,23.454102 29.5,26.214844 29.5,29.497314 ZM24.5,14.499023 C24.5,8.9748535 20.582458,4.4987793 15.749939,4.4987793 C10.91748,4.4987793 7.0,8.9748535 7.0,14.499023 C7.0,20.020996 10.91748,24.498535 15.749939,24.498535 C20.582458,24.498535 24.5,20.020996 24.5,14.499023 ZM26.999939,30.122559 C26.999939,27.465088 24.983154,25.25122 22.280273,24.662842 C20.437927,26.128174 18.187622,26.998047 15.749939,26.998047 C13.312256,26.998047 11.062012,26.128174 9.2196045,24.662842 C6.5167236,25.25122 4.499939,27.465088 4.499939,30.122559 C4.499939,30.122559 4.499939,33.87256 4.499939,33.87256 C4.499939,36.979736 7.2473145,39.49756 10.6362915,39.49756 C10.6362915,39.49756 20.863647,39.49756 20.863647,39.49756 C24.252563,39.49756 26.999939,36.979736 26.999939,33.87256 C26.999939,33.87256 26.999939,30.122559 26.999939,30.122559 ZM33.249878,31.997803 C33.249878,31.997803 40.75,31.997803 40.75,31.997803 C41.440308,31.997803 41.99994,32.556885 41.99994,33.24756 C41.99994,33.937256 41.440308,34.497803 40.75,34.497803 C40.75,34.497803 33.249878,34.497803 33.249878,34.497803 C32.55957,34.497803 32.0,33.937256 32.0,33.24756 C32.0,32.556885 32.55957,31.997803 33.249878,31.997803 Z"/>
</svg>