<svg xmlns="http://www.w3.org/2000/svg"
 xmlns:xlink="http://www.w3.org/1999/xlink"
 width="41px" height="41px"  viewBox="0 0 41 41">
<path fill-rule="evenodd"  fill="#404041"
 d="M35.25,36.435303 C35.25,36.435303 28.852173,38.216553 22.177734,39.99756 C21.377808,39.99756 20.572876,39.99756 19.773193,39.99756 C13.154053,38.216553 6.749878,36.435303 6.749878,36.435303 C4.237915,35.619385 2.0,34.308594 2.0,31.68457 C2.0,31.68457 2.0,6.746826 2.0,6.746826 C2.0,4.125 4.126587,1.9978027 6.749878,1.9978027 C6.749878,1.9978027 13.821899,3.965332 19.773193,5.5598145 C20.556519,5.5598145 21.345337,5.590088 22.128662,5.5598145 C28.375732,3.8903809 35.25,1.9978027 35.25,1.9978027 C37.87329,1.9978027 40.0,4.125 40.0,6.746826 C40.0,6.746826 40.0,31.68457 40.0,31.68457 C40.0,34.308594 37.687744,35.803467 35.25,36.435303 ZM6.749878,4.3725586 C5.4383545,4.3725586 4.375,5.4365234 4.375,6.746826 C4.375,6.746826 4.375,31.68457 4.375,31.68457 C4.375,32.997314 5.401123,33.689453 6.749878,34.060547 C6.749878,34.060547 13.326782,35.876465 19.8125,37.619873 C19.8125,37.619873 19.8125,7.9345703 19.8125,7.9345703 C19.8125,7.9345703 6.749878,4.3725586 6.749878,4.3725586 ZM37.625,6.746826 C37.625,5.4365234 36.561646,4.3725586 35.25,4.3725586 C35.25,4.3725586 22.1875,7.9345703 22.1875,7.9345703 C22.1875,7.9345703 22.1875,37.59497 22.1875,37.59497 C28.786377,35.85913 35.25,34.060547 35.25,34.060547 C36.524536,33.651855 37.625,32.997314 37.625,31.68457 C37.625,31.68457 37.625,6.746826 37.625,6.746826 Z"/>
</svg>