<svg xmlns="http://www.w3.org/2000/svg"
 xmlns:xlink="http://www.w3.org/1999/xlink"
 width="42px" height="41px"  viewBox="0 0 42 41">
<path fill-rule="evenodd"  fill="#404041"
 d="M21.0,39.99707 C10.506592,39.99707 2.0,31.4917 2.0,20.997559 C2.0,10.504639 10.506592,1.9978027 21.0,1.9978027 C31.493408,1.9978027 40.000122,10.504639 40.000122,20.997559 C40.000122,31.4917 31.493408,39.99707 21.0,39.99707 ZM21.0,4.3737793 C11.818359,4.3737793 4.375,11.815674 4.375,20.997559 C4.375,30.179688 11.818359,37.622314 21.0,37.622314 C30.181763,37.622314 37.625122,30.179688 37.625122,20.997559 C37.625122,11.815674 30.181763,4.3737793 21.0,4.3737793 ZM21.547852,28.644775 C21.486816,28.81958 21.397827,28.985596 21.253174,29.122559 C20.774536,29.56958 20.023071,29.545898 19.574707,29.066895 C19.574707,29.066895 14.145508,24.060303 14.145508,24.060303 C13.697144,23.581055 13.721558,22.830322 14.200195,22.381836 C14.678833,21.932617 15.430176,21.95752 15.878662,22.436035 C15.878662,22.436035 20.127686,26.35498 20.127686,26.35498 C20.127686,26.35498 27.722046,13.200439 27.722046,13.200439 C28.049927,12.632568 28.776123,12.438477 29.344116,12.76709 C29.91211,13.093506 30.106812,13.820068 29.778809,14.387939 C29.778809,14.387939 21.547852,28.644775 21.547852,28.644775 Z"/>
</svg>