<svg xmlns="http://www.w3.org/2000/svg"
 xmlns:xlink="http://www.w3.org/1999/xlink"
 width="10px" height="19px"  viewBox="0 0 10 19">
<path fill-rule="evenodd"  fill="#eef1f9"
 d="M6.899597,4.0805664 C6.899597,4.0805664 8.406921,4.0805664 8.406921,4.0805664 C8.406921,4.0805664 8.406921,1.6171875 8.406921,1.6171875 C8.406921,1.6171875 6.5595703,1.6171875 6.5595703,1.6171875 C6.5595703,1.6171875 6.5595703,1.628418 6.5595703,1.628418 C3.6690674,1.7304688 3.0751953,3.3579102 3.0237427,5.0683594 C3.0237427,5.0683594 3.0182495,5.0683594 3.0182495,5.0683594 C3.0182495,5.0683594 3.0182495,7.044922 3.0182495,7.044922 C3.0182495,7.044922 1.541687,7.044922 1.541687,7.044922 C1.541687,7.044922 1.541687,9.508789 1.541687,9.508789 C1.541687,9.508789 3.0182495,9.508789 3.0182495,9.508789 C3.0182495,9.508789 3.0182495,17.39209 3.0182495,17.39209 C3.0182495,17.39209 5.9699707,17.39209 5.9699707,17.39209 C5.9699707,17.39209 5.9699707,9.508789 5.9699707,9.508789 C5.9699707,9.508789 8.184326,9.508789 8.184326,9.508789 C8.184326,9.508789 8.622192,7.044922 8.622192,7.044922 C8.622192,7.044922 5.9699707,7.044922 5.9699707,7.044922 C5.9699707,7.044922 5.9699707,5.260254 5.9699707,5.260254 C5.9699707,4.6850586 6.352661,4.0805664 6.899597,4.0805664 Z"/>
</svg>