<svg xmlns="http://www.w3.org/2000/svg"
 xmlns:xlink="http://www.w3.org/1999/xlink"
 width="19px" height="15px"  viewBox="0 0 19 15">
<path fill-rule="evenodd"  fill="#eaf9fe"
 d="M17.638245,2.6362305 C17.372925,2.7827148 16.577026,3.0761719 15.836365,3.1484375 C16.311768,2.8911133 17.015808,2.0498047 17.18982,1.3813477 C16.7323,1.6743164 15.681641,2.1010742 15.163452,2.1010742 C15.163452,2.1010742 15.163452,2.1015625 15.163452,2.1020508 C14.571777,1.4829102 13.738892,1.0961914 12.8151245,1.0961914 C11.020935,1.0961914 9.56604,2.553711 9.56604,4.3500977 C9.56604,4.598633 9.594849,4.8427734 9.648193,5.076172 C9.648193,5.076172 9.647705,5.076172 9.647705,5.076172 C7.213806,5.0126953 4.552002,3.7905273 2.949646,1.699707 C1.9642944,3.4072266 2.8168945,5.3066406 3.9349365,5.9990234 C3.5523682,6.027832 2.8477783,5.955078 2.5161133,5.6308594 C2.4940186,6.7651367 3.038086,8.266602 5.022583,8.812012 C4.640503,9.017578 3.9638062,8.958984 3.6696777,8.915039 C3.7728882,9.87207 5.111084,11.123047 6.5740967,11.123047 C6.0526733,11.727051 4.090576,12.823242 1.888855,12.474121 C3.3841553,13.385742 5.126831,13.913086 6.9715576,13.913086 C12.213379,13.913086 16.284424,9.658203 16.065247,4.4086914 C16.064209,4.402832 16.064209,4.397461 16.06372,4.390625 C16.064209,4.3779297 16.065247,4.3637695 16.065247,4.3500977 C16.065247,4.3339844 16.06372,4.3183594 16.063293,4.302246 C16.540527,3.975586 17.180786,3.397461 17.638245,2.6362305 Z"/>
</svg>