<svg xmlns="http://www.w3.org/2000/svg" width="61.38" height="61.38" viewBox="0 0 61.38 61.38">
	<style type="text/css">
		.st0{fill:#414042;}
	</style>
	<path class="st0" d="M30.69,4.63C16.32,4.63 4.63,16.32 4.63,30.69C4.63,45.06 16.32,56.75 30.69,56.75C45.06,56.75 56.75,45.06 56.75,30.69C56.75,16.32 45.06,4.63 30.69,4.63M30.69,61.38C13.76,61.38 0,47.61 0,30.69C0,13.76 13.76,0 30.69,0C47.61,0 61.38,13.76 61.38,30.69C61.38,47.61 47.61,61.38 30.69,61.38"/>
	<path class="st0" d="M30.67,43.49C30.53,43.49 30.39,43.46 30.26,43.41C29.76,43.23 17.96,38.65 17.96,29.55C17.96,26.06 21.08,23.22 24.91,23.22C27.27,23.22 29.53,24.84 30.8,26.53C32.04,24.84 33.99,23.22 36.34,23.22C40.14,23.22 43.23,26.04 43.23,29.5C43.23,38.77 31.56,43.23 31.06,43.41C30.94,43.46 30.8,43.49 30.67,43.49"/>
</svg>