<svg xmlns="http://www.w3.org/2000/svg" width="51.94" height="51.89" viewBox="0 0 51.94 51.89">
	<style type="text/css">
		.st0{fill:#414042;}
	</style>
	<path class="st0" d="M45.23,29.66C45.23,25.41 43.59,21.42 40.62,18.42C35.06,12.8 19.27,4.2 10.32,4.2C8.21,4.2 6.66,4.67 5.74,5.61C4.8,6.55 4.33,8.11 4.33,10.26C4.33,19.32 12.86,35.27 18.43,40.89C21.39,43.89 25.33,45.53 29.52,45.53C33.71,45.54 37.66,43.89 40.62,40.89C43.59,37.89 45.23,33.9 45.23,29.66M0,10.32C0,7.01 0.89,4.43 2.66,2.67C4.43,0.89 7,0 10.32,0C20.78,0 37.52,9.18 43.7,15.37C47.48,19.16 49.57,24.2 49.57,29.55C49.57,34.9 47.49,39.93 43.7,43.72C39.92,47.51 34.88,49.6 29.52,49.6C24.17,49.6 19.13,47.51 15.34,43.72C9.16,37.53 0,20.78 0,10.32"/>
	<path class="st0" d="M3.1,4.78C3.1,4.23 3.31,3.67 3.74,3.24C4.59,2.4 5.96,2.41 6.81,3.26L51.31,48.2C52.15,49.05 52.14,50.42 51.29,51.27C50.44,52.11 49.07,52.1 48.22,51.25L3.72,6.31C3.3,5.89 3.1,5.34 3.1,4.78"/>
	<path class="st0" d="M30.38,30.28L30.38,14.93C30.38,13.73 31.32,12.75 32.48,12.75C33.64,12.75 34.58,13.73 34.58,14.93L34.58,30.28C34.58,31.49 33.64,32.46 32.48,32.46C31.32,32.46 30.38,31.49 30.38,30.28"/>
	<path class="st0" d="M10.81,25.96C10.81,24.82 11.84,23.9 13.1,23.9L23.43,23.9C24.7,23.9 25.72,24.82 25.72,25.96C25.72,27.11 24.7,28.03 23.43,28.03L13.1,28.03C11.84,28.03 10.81,27.11 10.81,25.96"/>
	<path class="st0" d="M17.32,17.03L17.32,8.66C17.32,7.43 18.25,6.43 19.4,6.43C20.54,6.43 21.47,7.43 21.47,8.66L21.47,17.03C21.47,18.26 20.54,19.26 19.4,19.26C18.25,19.26 17.32,18.26 17.32,17.03"/>
	<path class="st0" d="M21.75,38.98C21.75,37.86 22.73,36.96 23.96,36.96L38.97,36.96C40.19,36.96 41.18,37.86 41.18,38.98C41.18,40.1 40.19,41 38.97,41L23.96,41C22.73,41 21.75,40.1 21.75,38.98"/>
</svg>